/* XPM */
static char *result[] = {
/* columns rows colors chars-per-pixel */
"50 50 47 1 ",
"  c #3D260F",
". c #3F290F",
"X c #412B0F",
"o c #46320F",
"O c #49360F",
"+ c #4D3A0E",
"@ c #503F0E",
"# c #432D11",
"$ c #463213",
"% c #493614",
"& c #4B3916",
"* c #503D13",
"= c #53430E",
"- c #57480E",
"; c #594B0D",
": c #5E520E",
"> c #544413",
", c #5A4611",
"< c #574813",
"1 c #5B4C12",
"2 c #5E5111",
"3 c #62550D",
"4 c #655B0E",
"5 c #685F0E",
"6 c #614D12",
"7 c #625610",
"8 c #695612",
"9 c #655A10",
"0 c #6C5C11",
"q c #6C630D",
"w c #6F680C",
"e c #71660F",
"r c #736B0C",
"t c #7B720E",
"y c #716214",
"u c #776911",
"i c #7B6C11",
"p c #7C7210",
"a c #80770F",
"s c #817412",
"d c #857911",
"f c #8A7C13",
"g c #8F8113",
"h c #948515",
"j c #978815",
"k c #998A15",
"l c None",
/* pixels */
"llllllllllllllllllllllllllllllllllllllllllllllllll",
"lllllllllllllllllllllllllllljjkkkkllllllllllllllll",
"llllllllllllllllllllllllllljjgfspdflllllllllllllll",
"lllllllllllllllllllllllllljjhp2&>0rlllllllllllllll",
"llllllllllllllllllllllllljkgi2&>7qllllllllllllllll",
"llllllllllllllllllllllllljgp2&>2wlllllllllllllllll",
"lllllllllllllllllllllllllhp2&%1wllllllllllllllllll",
"llllllllllllllllllllllllgt2&&&2rllllllllllllllllll",
"llllllllllllllllllllllllhr1%&&2wllllllllllllllllll",
"llllllllllllllllllllllldd5>%%%2wllllllllllllllllll",
"lllllllllllljjllllllllww5>&%.%2wllllllllllllllllll",
"lllllllllllljjllllllllr9>&&%.%2rllllllllllllllllll",
"lllllllllllljjklllllllr9%&%$%<9lllllllllllljlwelll",
"lllllllllllllhglllllllr9&&##>9rlllllllllljjjdrrlll",
"lllllllllllllgrewlllllu7&&$$&5tlllllllljjhjjjhllll",
"llllllllllllkgr72rllllr2%$.#>5rllllllllhjjjhklllll",
"llllllllllllkgu<1rllllr9%#.$&5rlllllllhjjjhjllllll",
"llllllllllllhfw<<qllllr9%#.#&qrlllllljjjhhjhllllll",
"llllllllllllte>&&<qlllr9%#.#&0rllllljhjjtsjlllllll",
"llllllllllllr5&%%&10llr9%#.$&-;llllrddasdfllllllll",
"llllllllllllrq&&&&%14l4;%#XX&..lllle4qrtgkllllllll",
"lllllllllllllq>%%&%$olo$%XX$%$Xllllq+-tfjjllllllll",
"llllllllllllll4&.$$$.X.#$.X$%$.lllo+X-thjlljjkjtrr",
"lllllllllllllha9&...XXXXXXXX$#XllXXXX-thllljgddtwe",
"lllllhhghgghghgp3oXXXXXXXXXXXXXllXXXX;thlljhtrrlll",
"jjjjjdrrrirprrtww4O#XXXXXXXXXXXlXXXXX;pjjjhprwrlll",
"lddty721<111211112:+.XXXXXXXXXXXXXXXXO;lkhtrrrllll",
"llew>%&&&%&&&%%$%&4;+XXXXXXXXXXXXXXXXXXlstrwrwllll",
"llle>%&&%%&&$XXX$%%74X.XXXXXXXXXXXXXXX@f1@errellll",
"lllll$####$#XXXX##X%OXXX.XXXXXXXXXXXX@uh,X@qrlllll",
"llllll..XXXXXXXXX .O-----XXXXXXXXXXX@5r0@ X5llllll",
"llllllllllXXXXXXo@O3reqq4OXXXXXXXXXX3q3XXX+qllllll",
"llllllllllllllX.;deqrr1*&#XXXXXXXXXX$$oX @qlllllll",
"lllllllllllllll0shprqr437%#XXXXX%%$%$#XX -rlllllll",
"lllllllllllllllkjhtittatr1%XX$##&&%&&%##X+3lllllll",
"llhhhhhhhhhlllljhhtdjhhsqq@XX%&&%&&&&%%#XXXlllllll",
"lllpttrtttthlljjjhfjkh8+++XX&&&%#%&&&&&%#XXlllllll",
"llluppddrwr5,1hffjks88%  XX$&%$%X#%&&&&&#XXlllllll",
"llllkjjjar4oX,dtahf,XXXXXXXX%XXXXX#%%%&&$XXlllllll",
"lllllllljioX-rresf@XXXXXXXXXXXXXXXX##$%&$XXlllllll",
"lllllllllllX;rrdi,X#%$# XXXXXXXXXXXXXX%%#XXlllllll",
"llllllllllll:eer7X+;>%##XXXXXXXXXXXXXX#$#XXlllllll",
"lllllllllllllrr@XOqr5O###XXXXXXXXXXXXXXXXXllllllll",
"lllllllllllllllX+5wrw5>$%#XXXXXXXXXXXXXlllllllllll",
"llllllllllllllll:rrww2>%$XXXXXXXXXXXXXllllllllllll",
"llllllllllllllllleq52%%$.XXXXXXXXXXXXlllllllllllll",
"lllllllllllllllllq>$XXXXXXXXXXXXXXXXXlllllllllllll",
"lllllllllllllllll>$#XXXXXXXXXXXXXXXXXXllllllllllll",
"lllllllllllllllll%#XXXXXXXXXXXXXXXXXXXllllllllllll",
"llllllllllllllllllXXXXXXXXXXXXXXXXXXXXllllllllllll"
};
