/* XPM */
static char *result[] = {
/* columns rows colors chars-per-pixel */
"50 43 125 2 ",
"   c #422C0F",
".  c #46310F",
"X  c #49350F",
"o  c #4F3D0F",
"O  c #452E10",
"+  c #492F10",
"@  c #463112",
"#  c #4B3311",
"$  c #4C3A13",
"%  c #513612",
"&  c #5B3413",
"*  c #543A13",
"=  c #5B3D13",
"-  c #5A3F18",
";  c #653514",
":  c #6B3315",
">  c #633C15",
",  c #6B3D16",
"<  c #733415",
"1  c #7C3616",
"2  c #753D17",
"3  c #793D17",
"4  c #7A3F18",
"5  c #54440E",
"6  c #57480E",
"7  c #5A4C0E",
"8  c #5E500F",
"9  c #544413",
"0  c #5E4114",
"q  c #574912",
"w  c #5A4C12",
"e  c #5E431A",
"r  c #5E5111",
"t  c #62560E",
"y  c #655B0F",
"u  c #685E0D",
"i  c #775E0F",
"p  c #634214",
"a  c #6A4614",
"s  c #654B17",
"d  c #6C4A15",
"f  c #624519",
"g  c #66491B",
"h  c #6C4B1A",
"j  c #7E4315",
"k  c #734A16",
"l  c #704618",
"z  c #7C4218",
"x  c #714F1A",
"c  c #7F491A",
"v  c #625411",
"b  c #6A5117",
"n  c #655912",
"m  c #6A5B13",
"M  c #715C14",
"N  c #74511C",
"B  c #79541D",
"V  c #6C630E",
"C  c #6F680C",
"Z  c #70660E",
"A  c #746B0E",
"S  c #786F0E",
"D  c #7C720F",
"F  c #6F6212",
"G  c #736513",
"H  c #766B11",
"J  c #7B6D13",
"K  c #7D7211",
"L  c #6F5121",
"P  c #715221",
"I  c #7C5A22",
"U  c #813716",
"Y  c #823B17",
"T  c #8D3B17",
"R  c #933C18",
"E  c #814619",
"W  c #844A1A",
"Q  c #8A4D1B",
"!  c #984217",
"~  c #974118",
"^  c #8D521B",
"/  c #845A1E",
"(  c #8B5C1F",
")  c #905915",
"_  c #92551D",
"`  c #96591D",
"'  c #995F1D",
"]  c #816810",
"[  c #9D631C",
"{  c #817512",
"}  c #857A11",
"|  c #8A7D13",
" . c #A0661D",
".. c #A46B1D",
"X. c #AB731D",
"o. c #AF781E",
"O. c #B27B1E",
"+. c #835E23",
"@. c #8B5E21",
"#. c #905F20",
"$. c #866226",
"%. c #8C6425",
"&. c #866429",
"*. c #8A672A",
"=. c #8D6929",
"-. c #926424",
";. c #916926",
":. c #956F2C",
">. c #96712D",
",. c #98732F",
"<. c #926F30",
"1. c #967131",
"2. c #9B7633",
"3. c #9F7936",
"4. c #9D7938",
"5. c #A17B37",
"6. c #A37E3A",
"7. c #8E8113",
"8. c #938514",
"9. c #B8821E",
"0. c #A6813C",
"q. c #A9833D",
"w. c #A98440",
"e. c #B08B44",
"r. c None",
/* pixels */
"r.r.r.r.r.r.r.r.r.r.r.r.r.r.r.r.r.r.r.r.r.r.r.r.r.r.r.r.r.r.r.r.r.r.r.r.r.r.r.r.r.r.r.r.r.r.r.r.r.r.",
"r.r.r.r.r.r.r.r.r.r.r.r.r.r.r.r.r.r.r.r.r.r.r.r.r.r.r.r.r.r.r.r.r.r.r.r.r.r.r.r.r.r.r.r.r.r.r.r.r.r.",
"r.r.r.r.r.r.r.r.r.r.r.r.r.r.r.r.r.r.r.r.r.r.r.r.r.r.r.r.r.r.r.r.8.8.r.r.r.r.r.r.r.r.r.r.r.r.r.r.r.r.",
"r.r.r.r.r.r.r.r.r.r.r.r.r.r.r.r.r.r.r.r.r.r.r.r.r.r.r.8.8.8.r.| | 8.8.S K r.r.r.r.r.r.r.r.r.r.r.r.r.",
"r.r.r.r.r.r.r.r.r.r.r.r.r.r.r.r.r.r.r.r.r.r.r.r.r.r.8.8.8.{ G { 7.J m m F r.r.r.r.r.r.r.r.r.r.r.r.r.",
"r.r.r.r.r.r.r.r.r.r.r.r.r.r.r.r.r.r.r.r.r.r.r.r.r.7.7.} { G v G K n F C H r.V V C r.r.r.r.r.r.r.r.r.",
"r.r.r.r.r.r.r.r.r.r.r.r.r.r.r.r.r.r.r.r.r.7.8.| S K S F w s m K | } 8.| } v 5 6 q q V r.r.r.r.r.r.r.",
"r.r.r.r.r.r.r.r.r.r.r.r.r.r.r.r.r.r.r.r.7.7.} } n r F F H m | 8.8.| 7.} | J 8 o $ 9 w r.r.r.r.r.r.r.",
"r.r.r.r.r.r.r.r.r.r.r.r.r.r.r.r.r.r.8.7.D { 7.D H H y G G m 7.8.8.7.K G J K V 8 6 v w r.r.r.r.r.r.r.",
"r.r.r.r.r.r.r.r.r.r.r.r.r.r.r.r.r.} { } } D D | | J i b 7 G 7.8.8.7.| | K C y r V u y 9 $ r.r.r.r.r.",
"r.r.r.r.r.r.r.r.r.r.r.r.r.r.r.r.r.F V C F C K } ) R ! U ; a D | 7.D } S S C V V t w r q $ r.r.r.r.r.",
"r.r.r.r.r.r.r.r.r.9...X.` r.r.r.y V V v r r v V E R T U : , S } S V V C C V r q 9 q 9 q 9 r.r.r.r.r.",
"r.r.r.r.r.r.r.r.r.O.[ X.^ r.r.V r y y r n 9 $ 9 Y T U 1 : ; C A C w 9 m y t w q 9 9 6 $ q r.r.r.r.r.",
"r.r.r.r.r.r.r.r.r.[ ) ` [ r.r.M b b b s 0 g e f Y R R < 1 ; 8 u C r 9 v r q q $ @   6 A A V r.r.r.r.",
"r.r.r.r.r.r.r.r.o.[ z 3 ..X.^ [ [ [ [ ` Q [ ' _ 1 Y T 1 1 < * t w $ $ $ $ 8 0 M v w t C n r.r.r.r.r.",
"r.r.r.r.r.r.r.O.o.Q E ^ ^ X.[ Q ^ W ^ ^ Q E Q E E T R < : < % * - f #   @ 5 m { } F q 9 @ @ @ r.r.r.",
"r.r.r.r.r.r.O...' W _ ` _ ...._ W E W W W z z z z 3 1 < : 1 & > c c - $ e n 9 F n 9 q $ @ $ 7 r.r.r.",
"r.r.r.r.r.r.O.^ E Q ` ` _ ` O...Q z z z z W ' _ E z z : < < & = W E $ $ e 9 $ 9 9 $ @ 9 H C y r.r.r.",
"r.r.r.r.r.O.` W Q #.` ` ` ^  ...Q 3 2 3 2 W ` Q ; 2 3 2 2 : & * , l $ $ $ @ 9 q w r q V | F V r.r.r.",
"r.r.r.r.X.o.^ ~ ` ` ` ` _ Q _ O.` z 3 2 z Q z % # % 2 3 z c ; & - $ O @ @ @ $ @ 9 n 9 q r q w m r.r.",
"r.r.r.r...Q Q _ ` ` ` ` ` W Q  .o.^ 3 2 3 z ; # % @ , 3 3 3 2 , e ; % O @ @ $ @ 9 q r $ 9 q 9 q r.r.",
"r.r.r.O.#.W _ #.` ` #.! ` _ E Q ..[ E 2 2 3 : % & & 3 3 2 3 2 2 2 < ; O O $ $ @ w r 9 @ w r r $ r.r.",
"r.r.r.X.Q Q #._ ` #.` ` _ ` Q Q [ o.^ E 3 z 3 2 2 2 2 3 2 3 2 2 3 2 , #   @ @ 9 n 9 $ r 6 V r $ r.r.",
"r.r.O.[ Q E ~ #.~ #.~ ` _ _ _ Q Q ....W E Q E z W z z E z z 3 3 2 2 2 - @   O @ 9 $ F V 9 r.r.r.r.r.",
"r.r.o.W c E W Q Q W W Q E W Q E Q ' X._ 3 Q ^ E W Q c E E W 3 c z 4 4 2 , +   O $ $ 6 * $ r.r.r.r.r.",
"r.r.) & , c E z E E W W W W c j E z E W , > 2 2 2 , > 3 2 , , > , a 2 , > # O @ 9 6 t r.r.r.r.r.r.r.",
"r.r.r.# d ( @.@.@.;.%.-.=.;.%.$./ k d * + # X > - p - > = > > = > = * = % O   O .   r.r.r.r.  r.r.r.",
"r.r.r.* +.2.,.*.1.q.6.q.0.1.&.>.>.;.B = & O % a a a d a p d d p a a =   O           r.r.r.r.r.r.r.r.",
"r.r.r.% d N B k x @.@.@.x B a x N a # * p   . % * % % % % % * % % %           r.r.    #   r.r.r.r.r.",
"r.r.r.# 0 g d a p B x x h d p g s s 0 p =   . X . .     . . + + + #         r.r.r.@ r.r.r.r.r.r.r.r.",
"r.r.r.* %.5.1.*.1.6.1.5.q.<.&.3.3.6.:.x = + = = p p = = p = = p p = #       r.a * # r.r.r.r.r.r.r.r.",
"r.r.r.* =.6.6.0.:.5.5.6.5.q.q.q.q.6.=.d = + % = = p = 0 * = p p a * #   O O # = #   # r.r.r.r.r.r.r.",
"r.r.r.* h N I #.` -.( ( ( ( ( B x g * & 0 O   @   . # +   + . + + +     # O O O r.r.r.r.r.r.r.r.r.r.",
"r.r.r.# > f * = > = p = = 0 * * g P f = p O     # # # + + + X + . +     #   r.r.r.r.r.r.r.r.r.r.r.r.",
"r.r.r.& <.<.$ # # # * % # #   a 5.q.q.I p O # 0 a = * * * = p p p *   # % @ r.r.r.r.r.r.r.r.r.r.r.r.",
"r.r.r.e 6.w.g #   # = = # # # g 1.*.2.I p   # > = +         % p * * .   # % r.r.r.r.r.r.r.r.r.r.r.r.",
"r.r.r.g <.4.P % + # . * = = % x 6.6.5.$.p   * p p .   . .   % = X   O $ . . p r.r.r.r.r.r.r.r.r.r.r.",
"r.r.r.e *.1.N % % %   % * = * f :.2.2.I =   % p p +   + X   % % + * # X # # * r.r.r.r.r.r.r.r.r.r.r.",
"r.r.r.e 4.6.P * = a a d 0 & % g q.0.e.+.= X % a a % . . X X % + % %   5 * X # # q 0 p r.r.r.r.r.r.r.",
"r.r.r.e 1.1.h * > k k a = = * f 2.3.:.N = + # = p p p p & = = % % +   % * 0 o * X # # r.r.r.r.r.r.r.",
"r.r.r.* *.+.a * % p X % % = * = B I h p p O   . # % % % % * & * # X $ # * = # *   #     r.r.r.r.r.r.",
"r.r.r.* - * * * # * p = = = * # = 0 = = - O           +   X % - @ $ $ $ # % O #   # O   r.r.r.r.r.r.",
"r.r.r.* I $.a # + * > = % # # - B I +.p *   # * * * * % # . @ #     @ # # # O @ # r.    r.r.r.r.r.r."
};
