/* XPM */
static char *result[] = {
/* columns rows colors chars-per-pixel */
"36 50 148 2 ",
"   c #0E0E12",
".  c #160E12",
"X  c #1B0F16",
"o  c #0F1014",
"O  c #0F1118",
"+  c #111115",
"@  c #12141C",
"#  c #17181E",
"$  c #191A1F",
"%  c #22090C",
"&  c #320D14",
"*  c #2F161E",
"=  c #27181C",
"-  c #151A26",
";  c #1B1C24",
":  c #141D2D",
">  c #1A1E2D",
",  c #161F31",
"<  c #241724",
"1  c #251925",
"2  c #241E2C",
"3  c #301D21",
"4  c #361E28",
"5  c #1E2026",
"6  c #1F2128",
"7  c #172031",
"8  c #1A2232",
"9  c #2E2027",
"0  c #24242C",
"q  c #2C212A",
"w  c #2C2A2E",
"e  c #39232E",
"r  c #33232D",
"t  c #202232",
"y  c #262933",
"u  c #2B2C33",
"i  c #222A3A",
"p  c #2A2E39",
"a  c #342C35",
"s  c #2D323E",
"d  c #313137",
"f  c #30313E",
"g  c #3D3439",
"h  c #3B3435",
"j  c #4E0304",
"k  c #560A0B",
"l  c #5B090A",
"z  c #4B0E10",
"x  c #491214",
"c  c #4A1319",
"v  c #521013",
"b  c #55161B",
"n  c #5D1418",
"m  c #511B1E",
"M  c #5B181C",
"N  c #740808",
"B  c #780F0F",
"V  c #740F10",
"C  c #64181A",
"Z  c #7B1313",
"A  c #731618",
"S  c #441D24",
"D  c #4D1C24",
"F  c #5A1C20",
"G  c #462226",
"H  c #482827",
"J  c #572D2F",
"K  c #412C34",
"L  c #5B2E30",
"P  c #443439",
"I  c #51363D",
"U  c #5C3B3B",
"Y  c #662D2B",
"T  c #762425",
"R  c #7C2A29",
"E  c #693230",
"W  c #783E3A",
"Q  c #2F3542",
"!  c #323742",
"~  c #343945",
"^  c #3B3A42",
"/  c #363D4C",
"(  c #3A3F4C",
")  c #403E44",
"_  c #3F424C",
"`  c #374151",
"'  c #3C4455",
"]  c #3D4658",
"[  c #4C434A",
"{  c #51424A",
"}  c #52494C",
"|  c #584C4D",
" . c #444A57",
".. c #4B4E5A",
"X. c #544A50",
"o. c #4D525F",
"O. c #5D5257",
"+. c #56525A",
"@. c #5C565C",
"#. c #744D4B",
"$. c #635555",
"%. c #755453",
"&. c #4B5163",
"*. c #515663",
"=. c #535866",
"-. c #4F5970",
";. c #535D74",
":. c #5D6374",
">. c #62616B",
",. c #6F6468",
"<. c #736363",
"1. c #7B6867",
"2. c #616471",
"3. c #666A77",
"4. c #6B6C78",
"5. c #800605",
"6. c #800807",
"7. c #893733",
"8. c #844E49",
"9. c #855853",
"0. c #8C726E",
"q. c #8C7774",
"w. c #947776",
"e. c #937974",
"r. c #997E78",
"t. c #9C817D",
"y. c #A5857D",
"u. c #AB877E",
"i. c #6F7582",
"p. c #757782",
"a. c #7D818D",
"s. c #7F8390",
"d. c #81848F",
"f. c #968282",
"g. c #988484",
"h. c #818591",
"j. c #898C96",
"k. c #8A8F9C",
"l. c #A08784",
"z. c #AC8E86",
"x. c #B49389",
"c. c #BD978D",
"v. c #BF998E",
"b. c #9196A2",
"n. c #9DA1AE",
"m. c #C09A8F",
"M. c #C9A195",
"N. c None",
/* pixels */
"N.N.N.N.N.N.N.N.N.N.N.N.N.N.N.N.N.N.N.N.N.N.N.N.N.N.N.N.N.N.N.N.N.N.N.N.",
"N.N.N.N.N.N.N.N.N.N.N.N.N.N.N.N.N.N.N.N.N.N.N.N.N.N.N.N.N.N.N.N.N.N.N.N.",
"N.N.N.N.N.N.N.N.N.N.N.N.N.N.N.N.N.N.N.N.N.N.N.N.N.N.N.N.N.N.N.N.N.N.N.N.",
"N.N.N.N.N.N.N.N.N.N.N.N.N.N.N.N.N.] ' ' ] N.N.N.N.N.N.N.N.N.N.N.N.N.N.N.",
"N.N.N.N.N.N.N.N.N.N.N.N.N.N.N.] ] ] ] ] ] ] ] N.N.N.N.N.N.N.N.N.N.N.N.N.",
"N.N.N.N.N.N.N.N.N.N.N.N.N.N.' ] ] ] ] ] ] ] ] ] N.N.N.N.N.N.N.N.N.N.N.N.",
"N.N.N.N.N.N.N.N.N.N.N.N.N.] ' ] ] ] ' ' ] ] ] ] ] N.N.N.N.N.N.N.N.N.N.N.",
"N.N.N.N.N.N.N.N.N.N.N.N.] ] ' ` ] ' p Q ` ] ] ] ] N.N.N.N.N.N.N.N.N.N.N.",
"N.N.N.N.N.N.N.N.N.N.N.N.' ] ` 0 Q s 5 p ~ ' ] ] ]  .N.N.N.N.N.N.N.N.N.N.",
"N.N.N.N.N.N.N.N.N.N.N.N.' ' Q y _ =.2.o.Q ] ] ] / ( N.N.N.N.N.N.N.N.N.N.",
"N.N.N.N.N.N.N.N.N.N.N.N.] ' ~ a.k.a.n.a.f ] ] ] ! ! N.N.N.N.N.N.N.N.N.N.",
"N.N.N.N.N.N.N.N.N.N.N.N.' ' _ j.p.:.b.j.f ] ] ` Q p N.N.N.N.N.N.N.N.N.N.",
"N.N.N.N.N.N.N.N.N.N.N.N.` ( ^ i.a.4.p.>.^ _ ` / f d N.N.N.N.N.N.N.N.N.N.",
"N.N.N.N.N.N.N.N.N.N.N.N.~ / ^ O.<.N.r.0.L K ` ~ ) q.N.N.N.N.N.N.N.N.N.N.",
"N.N.N.N.N.N.N.N.N.N.N.N.p _ $.R 7.N.N.t.T S / s } x.N.N.N.N.N.N.N.N.N.N.",
"N.N.N.N.N.N.N.N.N.N.q u p f | T N.N.N.N.N.0 s p $.z.N.N.N.N.N.N.N.N.N.N.",
"N.N.N.N.N.N.N.N.N.N.$ 5 0 y w N.N.N.N.N.N.u p u g N.N.N.N.N.N.N.N.N.N.N.",
"N.N.N.N.N.N.N.N.N.N.N.0 ; 5 0 N.N.N.N.N.N.} y ; 0 N.N.N.N.N.N.N.N.N.N.N.",
"N.N.N.N.N.N.N.N.N.N.N.; $ ; 0 w N.N.N.N.N.h ; @ N.N.N.N.N.N.N.N.N.N.N.N.",
"N.N.N.N.N.N.N.N.N.N.N.N.$ $ $ p P ; 8 8 @ @ ; ; N.N.N.N.N.N.N.N.N.N.N.N.",
"N.N.N.N.N.N.N.N.N.N.N.N.N.0 - y N.2 , - @ : , 8 N.N.N.N.N.N.N.N.N.N.N.N.",
"N.N.N.N.N.N.N.N.N.N.N.N.- - - I y.X.: : : , , : ; N.N.N.N.N.N.N.N.N.N.N.",
"N.N.N.N.N.N.N.N.N.N.N.6 : : ^ y.x.1.: , : , 8 > ; N.N.N.N.N.N.N.N.N.N.N.",
"N.N.N.N.N.N.N.N.N.N.N.8 , : 0.x.x.<.: , : s <.U P N.N.N.N.N.N.N.N.N.N.N.",
"N.N.N.N.N.N.N.N.N.N.N.; O @ 0.m.u.[ , , 8 <.N.g.q.N.N.N.N.N.N.N.N.N.N.N.",
"N.N.N.N.N.N.N.N.N.N.N.$   o H #.J v S : y e.x.g.%.{ N.N.N.N.N.N.N.N.N.N.",
"N.N.N.N.N.N.N.N.N.N.N.N.+ o % x z l b , > 1.f.v.E N.N.N.N.N.N.N.N.N.N.N.",
"N.N.N.N.N.N.N.N.N.N.N.N.N.N.. 3 x k 4 , > G w.c.Y N.N.N.N.N.N.N.N.N.N.N.",
"N.N.N.N.N.N.N.N.N.N.N.N.N.N.+   = 4 , , , & W M.9.N.N.N.N.N.N.N.N.N.N.N.",
"N.N.N.N.N.N.N.N.N.N.N.N.N.N.1 + X : , 8 7 c j 8.0.N.N.N.N.N.N.N.N.N.N.N.",
"N.N.N.N.N.N.N.N.N.N.N.N.N.N.m 9 < > , r M A l j * N.N.N.N.N.N.N.N.N.N.N.",
"N.N.N.N.N.N.N.N.N.N.N.N.N.N.C e < > , t B Z N j 2 N.N.N.N.N.N.N.N.N.N.N.",
"N.N.N.N.N.N.N.N.N.N.N.N.N.N.6.S 1 > , , F 6.5.F > N.N.N.N.N.N.N.N.N.N.N.",
"N.N.N.N.N.N.N.N.N.N.N.N.N.N.Z 4 1 > , , , J b i , N.N.N.N.N.N.N.N.N.N.N.",
"N.N.N.N.N.N.N.N.N.N.N.N.N.N.a , 1 > , , , , , , 8 N.N.N.N.N.N.N.N.N.N.N.",
"N.N.N.N.N.N.N.N.N.N.N.N.N.N., , 1 > , , , , , , , N.N.N.N.N.N.N.N.N.N.N.",
"N.N.N.N.N.N.N.N.N.N.N.N.N.N.: , < , , , , 7 , , , N.N.N.N.N.N.N.N.N.N.N.",
"N.N.N.N.N.N.N.N.N.N.N.N.N.N.N.8 a p 8 , , 8 8 i 8 N.N.N.N.N.N.N.N.N.N.N.",
"N.N.N.N.N.N.N.N.N.N.N.N.N.N.N.N.N.h.3.N.N.2.s.h.N.N.N.N.N.N.N.N.N.N.N.N.",
"N.N.N.N.N.N.N.N.N.N.N.N.N.N.N.;.;.N.N.N.N.N.N.N.N.N.N.N.N.N.N.N.N.N.N.N.",
"N.N.N.N.N.N.N.N.N.N.N.N.N.N.>.:.;.N.&.N.N.N.;.;.;.N.N.N.N.N.N.N.N.N.N.N.",
"N.N.N.N.N.N.N.N.N.N.N.N.N.N.+.+.` 2. .N.N.*.;.:.2.N.N.N.N.N.N.N.N.N.N.N.",
"N.N.N.N.N.N.N.N.N.N.N.N.N.N.N.N.N.N.N.N.N.N...,.@.N.N.N.N.N.N.N.N.N.N.N.",
"N.N.N.N.N.N.N.N.N.N.N.N.N.N.N.N.N.N.N.N.N.N.N._ / N.N.N.N.N.N.N.N.N.N.N.",
"N.N.N.N.N.N.N.N.N.N.N.N.N.N.N.N.N.N.N.N.N.N.N.N.N.N.N.N.N.N.N.N.N.N.N.N.",
"N.N.N.N.N.N.N.N.N.N.N.N.N.N.N.N.N.N.N.N.N.N.N.N.N.N.N.N.N.N.N.N.N.N.N.N.",
"N.N.N.N.N.N.N.N.N.N.N.N.N.N.N.N.N.N.N.N.N.N.N.N.N.N.N.N.N.N.N.N.N.N.N.N.",
"N.N.N.N.N.N.N.N.N.N.N.N.N.N.N.N.N.N.N.N.N.N.N.N.N.N.N.N.N.N.N.N.N.N.N.N.",
"N.N.N.N.N.N.N.N.N.N.N.N.N.N.N.N.N.N.N.N.N.N.N.N.N.N.N.N.N.N.N.N.N.N.N.N.",
"N.N.N.N.N.N.N.N.N.N.N.N.N.N.N.N.N.N.N.N.N.N.N.N.N.N.N.N.N.N.N.N.N.N.N.N."
};
