/* XPM */
static char *result[] = {
/* columns rows colors chars-per-pixel */
"50 40 165 2 ",
"   c #1C141E",
".  c #2A141D",
"X  c #22151F",
"o  c #1F1621",
"O  c #221721",
"+  c #231A24",
"@  c #2B1C25",
"#  c #261E29",
"$  c #281F2A",
"%  c #341B25",
"&  c #3E1B24",
"*  c #2B222D",
"=  c #34222D",
"-  c #3B232D",
";  c #2E2632",
":  c #2F2836",
">  c #332731",
",  c #382731",
"<  c #332935",
"1  c #3B2B35",
"2  c #312B39",
"3  c #392E39",
"4  c #3C323C",
"5  c #481822",
"6  c #421F29",
"7  c #4C1F29",
"8  c #561924",
"9  c #671420",
"0  c #6E1520",
"q  c #6B1924",
"w  c #651D27",
"e  c #721521",
"r  c #7C1D29",
"t  c #771C27",
"y  c #4E232D",
"u  c #41262C",
"i  c #52222C",
"p  c #5B202A",
"a  c #422731",
"s  c #452C36",
"d  c #4C2B34",
"f  c #4D2F38",
"g  c #432F39",
"h  c #572630",
"j  c #512F39",
"k  c #5B2C34",
"l  c #44343D",
"z  c #4A343C",
"x  c #57353E",
"c  c #52383F",
"v  c #6A232D",
"b  c #75232D",
"n  c #7C222D",
"m  c #632B33",
"M  c #602D38",
"N  c #6C2C32",
"B  c #7A2630",
"V  c #6C333C",
"C  c #67383D",
"Z  c #3D3541",
"A  c #473740",
"S  c #443A44",
"D  c #4B3C45",
"F  c #453C48",
"G  c #483F48",
"H  c #533C45",
"J  c #693A43",
"K  c #7F3841",
"L  c #4B424B",
"P  c #584546",
"I  c #53444C",
"U  c #5A454C",
"Y  c #514750",
"T  c #534952",
"R  c #594E56",
"E  c #5C5159",
"W  c #684047",
"Q  c #66484F",
"!  c #67434A",
"~  c #7F4D4B",
"^  c #69524F",
"/  c #644C54",
"(  c #625157",
")  c #635159",
"_  c #69545B",
"`  c #62585F",
"'  c #7D5F58",
"]  c #7A5B57",
"[  c #635962",
"{  c #6A5C63",
"}  c #615C68",
"|  c #6E646C",
" . c #7E6760",
".. c #726972",
"X. c #766F7A",
"o. c #786F78",
"O. c #7C747C",
"+. c #8C1D29",
"@. c #841E28",
"#. c #941F2B",
"$. c #981F2C",
"%. c #87232E",
"&. c #93212E",
"*. c #9B212C",
"=. c #872430",
"-. c #8E2430",
";. c #822E39",
":. c #842B35",
">. c #962E37",
",. c #87313C",
"<. c #893339",
"1. c #99343C",
"2. c #A3232F",
"3. c #A02E38",
"4. c #A82B34",
"5. c #B32833",
"6. c #AF353C",
"7. c #8E3640",
"8. c #933B42",
"9. c #9B3842",
"0. c #8B5859",
"q. c #975152",
"w. c #995B56",
"e. c #AC5C57",
"r. c #87605D",
"t. c #A2665E",
"y. c #B2675E",
"u. c #A05960",
"i. c #806769",
"p. c #896D65",
"a. c #957673",
"s. c #AF6560",
"d. c #A86B64",
"f. c #B76B61",
"g. c #A8796A",
"h. c #BB7B6D",
"j. c #C37C6E",
"k. c #9F8072",
"l. c #AD8070",
"z. c #AC8C7B",
"x. c #A58B7C",
"c. c #BF8672",
"v. c #CA8572",
"b. c #C08576",
"n. c #C0917C",
"m. c #7E7882",
"M. c #857E83",
"N. c #87818B",
"B. c #93898E",
"V. c #908A93",
"C. c #BE9683",
"Z. c #BC9A87",
"A. c #C3A28C",
"S. c #D8A48C",
"D. c #E3A386",
"F. c #ECB392",
"G. c #F0BC9A",
"H. c #E9C6A6",
"J. c #F6C9A5",
"K. c #F0CDAB",
"L. c #EED1AF",
"P. c #FCDBB6",
"I. c #FCDEB9",
"U. c #FEE0BB",
"Y. c None",
/* pixels */
"Y.Y.Y.Y.Y.Y.Y.Y.Y.Y.Y.Y.Y.Y.Y.Y.Y.Y.Y.Y.Y.Y.Y.Y.Y.Y.Y.Y.Y.Y.Y.Y.Y.Y.Y.Y.Y.Y.Y.Y.Y.Y.Y.Y.Y.Y.Y.Y.Y.Y.",
"Y.Y.Y.Y.Y.Y.Y.Y.Y.Y.Y.Y.Y.Y.Y.Y.Y.Y.Y.Y.Y.Q H H H / Y.Y.Y.Y.Y.Y.Y.Y.Y.Y.Y.Y.Y.Y.Y.Y.Y.Y.Y.Y.Y.Y.Y.Y.",
"Y.Y.Y.Y.Y.Y.Y.Y.Y.Y.Y.Y.Y.Y.Y.Y.Y.Y.Y.H 2 : : ; 2 : 1 D Y.Y.Y.Y.Y.Y.Y.Y.Y.Y.Y.Y.Y.Y.Y.Y.Y.Y.Y.Y.Y.Y.",
"Y.Y.Y.Y.Y.Y.Y.Y.Y.Y.Y.Y.Y.Y.Y.Y.H _ z < ; : ; : 2 > : : 4 ) Y.Y.Y.Y.Y.Y.Y.Y.Y.Y.Y.Y.Y.Y.Y.Y.Y.Y.Y.Y.",
"Y.Y.Y.Y.Y.Y.Y.Y.Y.Y.Y.Y.Y.Y.D , A H < ; : : ; : 2 : 2 2 < Z Y.Y.Y.Y.Y.Y.Y.Y.Y.Y.Y.Y.Y.Y.Y.Y.Y.Y.Y.Y.",
"Y.Y.Y.Y.Y.Y.Y.Y.Y.Y.Y.H g , * > U Z 2 : : : Z : 2 2 2 2 2 2 T Y.Y.Y.Y.Y.Y.Y.Y.Y.Y.Y.Y.Y.Y.Y.Y.Y.Y.Y.",
"Y.Y.Y.Y.H 1 3 Y.Y.Y.U ; * * * 4 I < : 2 2 2 2 : 2 2 2 2 2 2 F Y.Y.| Y Y.Y.Y.Y.Y.Y.Y.Y.Y.Y.Y.Y.Y.Y.Y.",
"Y.M.D @ O O + 4 Y.Y.3 * # * S Y.G 2 : : 2 2 Z : : 2 2 : : 2 Z Y.Y.F Y.Y.Y.Y.Y.Y.Y.Y.Y.Y.Y.Y.Y.Y.Y.Y.",
"Y.Y.I 3 4 4 O # 3 1 * + 3 Y.Y.Y.Z ; ; < 2 2 L [ 2 Z F L F < Z Y.Y.S Y.Y.Y.Y.| Y.Y.Y.Y.Y.Y.Y.Y.Y.Y.Y.",
"Y.Y.Y.Y.Y.{ = * * * * < L Y.Y.Y.Z # ; 2 2 Z m.Y.Y.V.N.M.} ; 3 Y.Y.< Y.Y.Y.Y.E Y.Y.Y.Y.Y.Y.Y.Y.Y.Y.Y.",
"Y.Y.Y.Y.Y.T - 4 < ; * > Y.Y.Y.Y.< + * 2 : } Y.Y.O.....X.L < < Y.Y.1 S Y.Y.Y.S Y.Y.Y.Y.Y.Y.Y.Y.Y.Y.Y.",
"Y.Y.Y.Y.Y.T Y.Y.Y.Y.< O L Y.Y.Y.F # # 2 D a.Y.B.m.X.O.| G l ; Y.Y.* Z Y.Y.Y.> Y.Y.Y.Y.Y.Y.Y.Y.Y.Y.Y.",
"Y.Y.Y.Y.Y.Y.Y.Y.Y.Y.;   < Y.Y.Y.i.z X g ] g.n.C.z.A.Z.p.l.^ * Y.Y.* 4 U P l * Y.Y.Y.Y.Y.Y.Y.Y.Y.Y.Y.",
"Y.Y.Y.Y.Y.Y.Y.Y.Y.Y.L 4 L Y.Y.Y.Y.d   0.d.>.>.t.H.P.L.t.0.I , Y.Y.< + = @ * S Y.Y.Y.Y.Y.Y.Y.Y.Y.Y.Y.",
"Y.Y.Y.Y.Y.Y.Y.Y.Y.Y.E [ Y.Y.Y.Y.Y.h - y.v.6.5.q.L.I.H.1.y.C V Y.Y.Y.* * # * Y.Y.Y.Y.Y.Y.Y.Y.Y.Y.Y.Y.",
"Y.Y.Y.Y.Y.Y.Y.Y.Y.Y.Y.Y.Y.Y.Y.Y.Y.d & e.D.v.f.S.P.I.K.h.c.m Y.Y.Y.Y.< * 3 Y.Y.Y.Y.Y.Y.Y.Y.Y.Y.Y.Y.Y.",
"Y.Y.Y.Y.Y.Y.Y.T Y.Y.| H H P / Y.Y.l . N v.F.G.J.P.U.U.J.l.d Y.Y.Y.S + 4 Y.Y.Y.Y.Y.Y.Y.Y.Y.Y.Y.Y.Y.Y.",
"Y.Y.Y.Y.Y.Y.Y.Y.Y.Y.Y.L > * = = > * O X - ' z.A.S.z.x. .l Y.Y.Y.Y O 4 Y.Y.Y.Y.Y.Y.Y.Y.Y.Y.Y.Y.Y.Y.Y.",
"Y.Y.Y.Y.Y.Y.Y.Y.Y.Y.Y.Y.` 4 < * O * *         * , u +   * F Y.Y.L 4 E Y.Y.Y.Y.Y.Y.Y.Y.Y.Y.Y.Y.Y.Y.Y.",
"Y.Y.Y.Y.Y.Y.Y.Y.Y.Y.Y.Y.Y.Y.Y.Y.* * * O         . .     @ ; z { Y.Y.Y.Y.Y.Y.Y.Y.Y.Y.Y.Y.Y.Y.Y.Y.Y.Y.",
"Y.Y.Y.Y.Y.Y.Y.Y.Y.Y.Y.Y.Y.Y.Y.L * * *     o     . X     X * * < H Y.Y.Y.Y.Y.Y.Y.Y.Y.Y.Y.Y.Y.Y.Y.Y.Y.",
"Y.Y.Y.Y.Y.Y.Y.Y.Y.Y.E Y.Y.Y.Y.3 * * * o o o @ y p v % O * * * * ; s ! Y.Y.Y.Y.Y.Y.Y.Y.Y.Y.Y.Y.Y.Y.Y.",
"Y.Y.Y.Y.Y.Y.Y.Y.Y.T S Y.Y.Y.Y.4 * * ; * o o s b q b k * Y.* + < r.w.b Y.Y.Y.Y.Y.Y.Y.Y.Y.Y.Y.Y.Y.Y.Y.",
"Y.Y.Y.Y.Y.Y.Y.Y.Y.L Z Y.Y.Y.Y.Y.; * * * * * V :.t e b a Y.Y.O i h.j.>.Y.Y.| Y.Y.Y.Y.Y.Y.Y.Y.N.` Y.Y.",
"Y.Y.Y.Y.Y.Y.Y.Y.Y.L 4 Y.Y.Y.Y.Y.$ z H = $ $ j ;.r n m * D Y.Y.q =.1.Y.Y.Y.T l Y.Y.Y.Y.Y.Y.Y.L * Y.Y.",
"Y.Y.Y.Y.Y.Y.Y.Y.Y.Y.< Y.Y.Y.Y.Y.7 s.c.B h # # 1 h d * # * z Y.Y.Y.Y.Y.Y.Y.E * L Y.Y.Y.Y.Y.Y.= * Y.Y.",
"Y.Y.Y.Y.Y.Y.Y.Y.Y.Y.Y.A Y.Y.Y.Y.b ,.8.>.K ; # + @ % + * = H 1.9.u.Y.Y.Y.Y.L O * I Y.Y.Y.Y.4 O Y.Y.Y.",
"Y.Y.Y.Y.Y.Y.Y.Y.Y.Y.Y.Y.Y.Y.Y.Y.! w @.4.8.< ; $ @ % * * * J 6.4.8._ Y.Y.Y.E 4 * , E Y.Y.D + Y.Y.Y.Y.",
"Y.Y.Y.Y.Y.Y.Y.Y.Y.Y.Y.Y.z a z A , s C J g ; ; * ; y % * $ H 9.V , * D Y.Y.Y.Y.1 * < H D - 3 Y.Y.Y.Y.",
"Y.Y.Y.Y.Y.Y.Y.Y.Y.Y.Y.Y./ 1 # $ * * * $ * * * * - r 8 # $ < 1 + * * * 4 ..Y.O.L A > @ * , 4 Y.Y.Y.Y.",
"Y.Y.Y.Y.Y.Y.Y.Y.Y.Y.! 1 > # # # $ * * * * ; * * v $.0 5 + * # + * * Y.Y.Y.Y.N.Y > * * * Y.Y.Y.Y.Y.Y.",
"Y.Y.Y.Y.Y.Y.Y.Y.Y./ , # # * * : $ # # * * * * 7 2.#.e 9 % # * + O ; Y.Y.Y.Y.Y.Y.[ Y.Y.Y.Y.Y.Y.Y.Y.Y.",
"Y.Y.Y.Y.Y.Y.Y.Y._ 3 # * S Y.Y.Y.* + + # * # % -.2.#.e e 8 * * # O < Y.R Y.Y.Y.Y.Y.Y.Y.Y.Y.Y.Y.Y.Y.Y.",
"Y.Y.Y.Y.Y.Y.Y.( , * 3 Y.Y.Y.Y.Y.Y.< * * # # w 2.2.-.B r M * # # * Y.Y.I Y.Y.Y.Y.Y.Y.Y.Y.Y.Y.Y.Y.Y.Y.",
"Y.Y.Y.Y.Y.Y...3 4 Y.Y.Y.Y.Y.Y.Y.Y.Y.Y.> ; u +.*.2.9.Y.;.) * # * S Y.Y.Y.Y.Y.Y.Y.Y.Y.Y.Y.Y.Y.Y.Y.Y.Y.",
"Y.Y.Y.Y.Y.Y.Y.Y.Y.Y.Y.Y.Y.Y.Y.Y.Y.Y.Y.Y.Y.<.#.$.&.Y.Y.Y.) * # * Y.Y.Y.Y.Y.Y.Y.Y.Y.Y.Y.Y.Y.Y.Y.Y.Y.Y.",
"Y.Y.Y.Y.Y.Y.Y.Y.Y.Y.Y.Y.Y.Y.Y.Y.Y.Y.Y.Y.Y.Y.1.&.=.Y.Y.Y.Y.; * Y.Y.Y.Y.Y.Y.Y.Y.Y.Y.Y.Y.Y.Y.Y.Y.Y.Y.Y.",
"Y.Y.Y.Y.Y.Y.Y.Y.Y.Y.Y.Y.Y.Y.Y.Y.Y.Y.Y.Y.Y.Y.Y.Y.7.Y.Y.Y.Y.3 Y.Y.Y.Y.Y.Y.Y.Y.Y.Y.Y.Y.Y.Y.Y.Y.Y.Y.Y.Y.",
"Y.Y.Y.Y.Y.Y.Y.Y.Y.Y.Y.Y.Y.Y.Y.Y.Y.Y.Y.Y.Y.Y.Y.Y.Y.Y.Y.Y.Y.Y.Y.Y.Y.Y.Y.Y.Y.Y.Y.Y.Y.Y.Y.Y.Y.Y.Y.Y.Y.Y.",
"Y.Y.Y.Y.Y.Y.Y.Y.Y.Y.Y.Y.Y.Y.Y.Y.Y.Y.Y.Y.Y.Y.Y.Y.Y.Y.Y.Y.Y.Y.Y.Y.Y.Y.Y.Y.Y.Y.Y.Y.Y.Y.Y.Y.Y.Y.Y.Y.Y.Y."
};
