/* XPM */
static char *result[] = {
/* columns rows colors chars-per-pixel */
"50 50 220 2 ",
"   c #020202",
".  c #141210",
"X  c #211C1A",
"o  c #2C2825",
"O  c #322E2A",
"+  c #38332C",
"@  c #383733",
"#  c #3C3C35",
"$  c #323334",
"%  c #433B32",
"&  c #493C31",
"*  c #44433A",
"=  c #4D4B3D",
"-  c #4B4739",
";  c #524C3B",
":  c #584839",
">  c #5A543C",
",  c #56513C",
"<  c #644C3B",
"1  c #775037",
"2  c #6B503E",
"3  c #433F40",
"4  c #4E4D43",
"5  c #494645",
"6  c #524D42",
"7  c #564D48",
"8  c #525143",
"9  c #54534B",
"0  c #5A544C",
"q  c #5C5A4B",
"w  c #5B5644",
"e  c #5D5C52",
"r  c #5A5656",
"t  c #635B43",
"y  c #655948",
"u  c #785941",
"i  c #615D55",
"p  c #6B5852",
"a  c #69644D",
"s  c #666352",
"d  c #6A6652",
"f  c #65645C",
"g  c #69675D",
"h  c #6C6A56",
"j  c #736C54",
"k  c #736C59",
"l  c #76685C",
"z  c #797456",
"x  c #6D6C65",
"c  c #736E6B",
"v  c #756A62",
"b  c #73726C",
"n  c #7D736C",
"m  c #7B7A74",
"M  c #7E7D79",
"N  c #82563C",
"B  c #955E38",
"V  c #9A623A",
"C  c #A7683D",
"Z  c #B3703E",
"A  c #865E48",
"S  c #8A6345",
"D  c #9A6B4A",
"F  c #81695B",
"G  c #807A5A",
"H  c #987056",
"J  c #B97849",
"K  c #AD724D",
"L  c #866D61",
"P  c #877868",
"I  c #957A6C",
"U  c #967563",
"Y  c #8D7C72",
"T  c #A77E62",
"R  c #C77B44",
"E  c #D07C42",
"W  c #9A8C57",
"Q  c #BC845A",
"!  c #898565",
"~  c #938C65",
"^  c #978C65",
"/  c #8A8878",
"(  c #948375",
")  c #9B8375",
"_  c #97877D",
"`  c #9C9679",
"'  c #9C9567",
"]  c #A49966",
"[  c #A6977B",
"{  c #A98B6E",
"}  c #ACA578",
"|  c #B5AB7A",
" . c #BCAD6D",
".. c #DE8744",
"X. c #DA8D54",
"o. c #D18B57",
"O. c #E48944",
"+. c #EA8D45",
"@. c #E88C49",
"#. c #EE9047",
"$. c #EC924A",
"%. c #ED9551",
"&. c #EA9C61",
"*. c #C3B676",
"=. c #C3AD66",
"-. c #CEC278",
";. c #D9C977",
":. c #F0DB7E",
">. c #F7E07A",
",. c #868683",
"<. c #8E8B85",
"1. c #9C8D84",
"2. c #948D87",
"3. c #9A9688",
"4. c #9A9893",
"5. c #AC9786",
"6. c #A5968C",
"7. c #AE998C",
"8. c #A49D87",
"9. c #B39A8A",
"0. c #B69B87",
"q. c #A49C9C",
"w. c #A58E80",
"e. c #ABA584",
"r. c #AAA588",
"t. c #B3AD8D",
"y. c #B8AC82",
"u. c #BBB385",
"i. c #A6A492",
"p. c #A4A49C",
"a. c #AAA798",
"s. c #BCA392",
"d. c #B6AB96",
"f. c #B9B498",
"g. c #A6A5A2",
"h. c #ADAEAA",
"j. c #AAA9A2",
"k. c #B4ADAD",
"l. c #B1B1AD",
"z. c #B6B4B1",
"x. c #BDBDBA",
"c. c #B8B7B4",
"v. c #AFB0AF",
"b. c #C7BC88",
"n. c #C7A998",
"m. c #CCB29C",
"M. c #C7B196",
"N. c #D4B39E",
"B. c #C2A28F",
"V. c #CCB4A3",
"C. c #DCBDAA",
"Z. c #D5B8A5",
"A. c #E4BBA5",
"S. c #BFC1BB",
"D. c #CCC183",
"F. c #CEC389",
"G. c #D8C785",
"H. c #DED28C",
"J. c #D7C990",
"K. c #DED293",
"L. c #CAC291",
"P. c #EBDB81",
"I. c #E7D989",
"U. c #E7D994",
"Y. c #F1DF90",
"T. c #F5E484",
"R. c #FEEC86",
"E. c #FEEB8C",
"W. c #F9E684",
"Q. c #F5E694",
"!. c #FFED94",
"~. c #F4E69A",
"^. c #F6E89B",
"/. c #FEEE9B",
"(. c #FFF095",
"). c #FFF19B",
"_. c #EFE291",
"`. c #D6D3B1",
"'. c #D4C5B0",
"]. c #E0C2AE",
"[. c #ECC4AC",
"{. c #EDCCB6",
"}. c #EACBB7",
"|. c #FACEB6",
" X c #F4CFB9",
".X c #F4CBB4",
"XX c #E8D5BA",
"oX c #F3D1BB",
"OX c #FDD5BD",
"+X c #FFD9BE",
"@X c #FDD1B7",
"#X c #EDD2A7",
"$X c #EDE4AD",
"%X c #ECE2A6",
"&X c #FFEFA3",
"*X c #F1E1A0",
"=X c #FFF0A4",
"-X c #FFF1AB",
";X c #FEF2B3",
":X c #FEF3BD",
">X c #EDE4B9",
",X c #CACBC6",
"<X c #C8C8C4",
"1X c #D7CECF",
"2X c #D2D2CD",
"3X c #DDD4D4",
"4X c #DADAD6",
"5X c #DEDDDA",
"6X c #D3D3D1",
"7X c #EAD2C1",
"8X c #FFDAC1",
"9X c #F2D5C1",
"0X c #E1DCDB",
"qX c #F4EDC1",
"wX c #FEF4C4",
"eX c #FBF4C5",
"rX c #E1E2DD",
"tX c #EFE9C2",
"yX c #E5E6E1",
"uX c None",
/* pixels */
"uXuXuXuXuXuXuXuXuXuXuXuXuXuXuXuXuXuXuXuXuXuXuXuXuXuXuXuXuXv.uXuXuXuXuXuXuXuXuXuXuXuXuXuXuXuXuXuXuXuX",
"uXuXuXuXuXuXuXuXuXuXuXuXuXuXuXuXuXuXuX4.p.4.uXuXuXuXuXuXa.a.uXuXuXuXuXuXuXuXuXuXuXuXuXuXuXuXuXuXuXuX",
"uXuXuXuXuXuXuXuXuXuXuXuXuXuXuXuXuXuXuX4.tXtXf.4.uXuXp.f.eX`.j.uXuXuXuXuXuXuXuXuXuXuXuXuXuXuXuXuXuXuX",
"uXuXuXuXuXuXuXuXuXuXuXuXuXuXuXuXuXuXuX3.eXwXeX`.i.i.`.eXeXeXf.uXuXuXuXuXuXuXuXuXuXuXuXuXuXuXuXuXuXuX",
"uXuXuXuXuXuXuXuXuXuXuXuXuXuXuX/ ! / 2.t.:XeXwXwXeXqXwXwXwX:X`.t.d.t.t.t.8.uXuXuXuXuXuXuXuXuXuXuXuXuX",
"uXuXuXuXuXuXuXuXuXuXuXuXuXL.%X%X$X$X$X$X:X:X:X:X:X:XwX:X:X:X;X;X;X-X-X=XU.! uXuXuXuXuXuXuXuXuXuXuXuX",
"uXuXuXuXuXuXuXuXuXuXuXuXuXJ.&X-X-X-X;X;X;X:X;X:X;X:X:X;X;X;X;X-X-X-X=X=XK.uXuXuXuXuXuXuXuXuXuXuXuXuX",
"uXuXuXuXuXuXuXuXuXuXuXuX<.y.&X&X-X-X-X-X-X-X;X-X;X-X-X;X-X-X-X-X-X-X&X&XF.3.uXuXuXuXuXuXuXuXuXuXuXuX",
"uXuXuXuXuXuXuXuXx.r.| b.F.Y././.=X&X&X&X=X-X=X-X-X-X-X-X&X=X&X&X&X&X&X/.^.I.F.y.e.i.uXuXuXuXuXuXuXuX",
"uXuXuXuXuXuXuXuXj.-.E.E.(.!.!.!././.&X&X&X=X=X=X=X=X=X=X=X&X&X&X).=X/./././.!./.~.e.uXuXuXuXuXuXuXuX",
"uXuXuXuXuXuXuXuXuX} P.E.E.!.!.!.!.!././././.).=X/./.).&X).=X/./.(./././.!./.Q.Q.F.3.uXuXuXuXuXuXuXuX",
"uXuXuXuXuXuXuXuXuX3.*.:.E.E.E.!.!.!.!.!.!./.(.)././././././././.!././././.!.Q.;.[ uXuXuXuXuXuXuXuXuX",
"uXuXuXuXuXuXuXuXuXuX} T.E.E.E.E.E.E.!.!.(.(.(.(.Q.(.^.&X).).).)./.(././.(.!.(.H.a.uXuXuXuXuXuXuXuXuX",
"uXuXuXuXuXuXuXuXuXuX*.R.E.R.E.E.E.I._.;.| } ' ~ ! ! ! ~ ] | b.U.^.&X*X(./././.Q.u.uXuXuXuXuXuXuXuXuX",
"uXuXuXuXuXuXuXuXuX| T.R.R.R.R.R. .j z q e f b M M M M m x f q s z ~ ` ^././.^.H.K.i.uXuXuXuXuXuXuXuX",
"uXuXuXuXuXuXuXuXe.P.R.T.R.P.T.T.z e x 2.v.`.4X2XS.S.c.'.2XS.g.m s a q K.U.~.).| ^.b.c.uXuXuXuXuXuXuX",
"uXuXuXuXuXuXuXa.;.>.:.-.>.] :. .q d ,.c.2X5XrXh.6X,Xc.x.rX4X,Xg.x j w | ~ u.&X| U.^.r.uXuXuXuXuXuXuX",
"uXuXuXuXuXuXuX3.;.>.;.*.;.> -.z d s <.S.2XrXc.4.6X4Xv.yXrX4X,Xv.b k y z a j *Xy.G.J.r.uXuXuXuXuXuXuX",
"uXuXuXuXuXuXuXuXr. .=.*.W ; ~ q h h 4.S.6X5Xg.,.x.S.v.yXrX4X,Xz.n k d ; , ; b.| y.8.uXuXuXuXuXuXuXuX",
"uXuXuXuXuXuXuXuXuXa.' ] t > - w h s ,.h.c.x.x.g.4.4.v.x.S.x.z.g.x k d , > ; P ` uXuXuXuXuXuXuXuXuXuX",
"uXuXuXuXuXuXuXuXuXuXuX! ; > > a d h f f e e e e s q e e e e i x f k a a > > 7 4.uXuXuXuXuXuXuXuXuXuX",
"uXuXuXuXuXuXuXuXuXuXuXc ; > > w s k Y ) w.9.9.9.s.s.s.9.7.5._ / P k y > > > 8 uXuXuXuXuXuXuXuXuXuXuX",
"uXuXuXuXuXuXuXuXuXuXuXuX; t z ( ]..XOXoXn.XX8X8X8X8X8X8X+XV.C.8XoX}.n.! k > 6 uXuXuXuXuXuXuXuXuXuXuX",
"uXuXuXuXuXuXuXuXuXuXuXuXk ' -.M.tX8XC.5.Z.Z.8X8XOXOX+X+X}.V.s.s.OX8X}.M.u.P M uXuXuXuXuXuXuXuXuXuXuX",
"uXuXuXuXuXuXuXuXuXuXuXuX2.[  .m.8XOX0   P 8X8X8X8X8X8X8X8XZ.X . m.8XoXt.r.1.uXuXuXuXuXuXuXuXuXuXuXuX",
"uXuXuXuXuXuXuXuXuXuXuXuX6.N.{ n.8X{.O   7 9X@X|.|.|.|.OX8X9.    5.OX Xw.0.V.uXuXuXuXuXuXuXuXuXuXuXuX",
"uXuXuXuXuXuXuXuXuXuXuXuXa.N.P N.oX Xv . Y @X|.|.|.|.|.|.|.Z.o o V. X}._ 0.d.uXuXuXuXuXuXuXuXuXuXuXuX",
"uXuXuXuXuXuXuXuXuXuXuXuXuX3.1.7X7X9X{.V..X8X8X8X8X8X8XOXOXOXC.C.8X7X7XV._ uXuXuXuXuXuXuXuXuXuXuXuXuX",
"uXuXuXuXuXuXuXuXuXuXuXuXuXuX5. X}.{.8X8XOX8XOXA.].].].OX8XOX8X8X8X{.}.].<.uXuXuXuXuXuXuXuXuXuXuXuXuX",
"uXuXuXuXuXuXuXuXuXuXuXuXuXuX1.n.A.{.OXOXOXOXOXoX{.}. X8X8XOXOXOX|.{.Z.7.uXuXuXuXuXuXuXuXuXuXuXuXuXuX",
"uXuXuXuXuXuXuXuXuXuXuXuXuXuXuX4.( 0.n.A..X|.@X@XOX|.OX@X|..X[.N.B.[ 1.uXuXuXuXuXuXuXuXuXuXuXuXuXuXuX",
"uXuXuXuXuXuXuXuXuXuXuXuXuXuXuXuXp.P v Y Y l L I I ) I L F Y w.n n <.uXuXuXuXuXuXuXuXuXuXuXuXuXuXuXuX",
"uXuXuXuXuXuXuXuXuXuXuXuXuXuXuXuXuXuXuXg.9 * O o @ $ o O * 9 x.uXuXuXuXuXuXuXuXuXuXuXuXuXuXuXuXuXuXuX",
"uXuXuXuXuXuXuXuXuXuXuXuXuXuXuXuXuXuXuXe = 4 ; * * * * 8 = - x uXuXuXuXuXuXuXuXuXuXuXuXuXuXuXuXuXuXuX",
"uXuXuXuXuXuXuXuXuXuXuXuXuXuXuXuXuXuXM 6 * * 6 8 8 4 8 8 * # 4 m uXuXuXuXuXuXuXuXuXuXuXuXuXuXuXuXuXuX",
"uXuXuXuXuXuXuXuXuXuXuXuXuXuXuXuXuXuX9 4 : t ; 6 4 8 4 ; y : 4 0 uXuXuXuXuXuXuXuXuXuXuXuXuXuXuXuXuXuX",
"uXuXuXuXuXuXuXuXuXuXuXuXuXuXuXuXuXuX9 ; Q X.J u 9 9 u J X.J : 9 ,.uXuXuXuXuXuXuXuXuXuXuXuXuXuXuXuXuX",
"uXuXuXuXuXuXuXuXuXuXuXuXuXuXuXuXuXf 9 < X.+.+.D e 9 D #.%.X.y 0 x uXuXuXuXuXuXuXuXuXuXuXuXuXuXuXuXuX",
"uXuXuXuXuXuXuXuXuXuXuXuXuXuXuXuXuXc 0 N O.O.+.B e e u +.O...A 7 c uXuXuXuXuXuXuXuXuXuXuXuXuXuXuXuXuX",
"uXuXuXuXuXuXuXuXuXuXuXuXuXuXuXuXuX4.9.: 1 B C < 5 * > C B 1 : 7.q.uXuXuXuXuXuXuXuXuXuXuXuXuXuXuXuXuX",
"uXuXuXuXuXuXuXuXuXuXuXuXuXuXuXuXuXuX<.y < & & + + + % & & : y 2.uXuXuXuXuXuXuXuXuXuXuXuXuXuXuXuXuXuX",
"uXuXuXuXuXuXuXuXuXuXuXuXuXuXuXuXuXuXk.J O.R K C B N B Z R ..R uXuXuXuXuXuXuXuXuXuXuXuXuXuXuXuXuXuXuX",
"uXuXuXuXuXuXuXuXuXuXuXuXuXuXuXuXuXuXr D X.+.+.@.E J E #.#.#.R uXuXuXuXuXuXuXuXuXuXuXuXuXuXuXuXuXuXuX",
"uXuXuXuXuXuXuXuXuXuXuXuXuXuXuXuXuXuX$ 5 0 F H K A C +.+.#.$.o.uXuXuXuXuXuXuXuXuXuXuXuXuXuXuXuXuXuXuX",
"uXuXuXuXuXuXuXuXuXuXuXuXuXuXuXuXuXuXr i v r 3 3 r T O.#.%.&.{ uXuXuXuXuXuXuXuXuXuXuXuXuXuXuXuXuXuXuX",
"uXuXuXuXuXuXuXuXuXuXuXuXuXuXuXuXuXuXuXn U I U p ,.1.D T T U P uXuXuXuXuXuXuXuXuXuXuXuXuXuXuXuXuXuXuX",
"uXuXuXuXuXuXuXuXuXuXuXuXuXuXuXuXuXuXuXM 3 r r c 0X0Xc 0 7 7 b uXuXuXuXuXuXuXuXuXuXuXuXuXuXuXuXuXuXuX",
"uXuXuXuXuXuXuXuXuXuXuXuXuXuXuXuXuXuXuXc.3 % % q.3X3Xq.% # 5 z.uXuXuXuXuXuXuXuXuXuXuXuXuXuXuXuXuXuXuX",
"uXuXuXuXuXuXuXuXuXuXuXuXuXuXuXuXuXuXuX3Xk.q.k.6X3X3X1Xk.g.k.0XuXuXuXuXuXuXuXuXuXuXuXuXuXuXuXuXuXuXuX",
"uXuXuXuXuXuXuXuXuXuXuXuXuXuXuXuXuXuXuXuXuXuXuXuXuXuXuXuXuXuXuXuXuXuXuXuXuXuXuXuXuXuXuXuXuXuXuXuXuXuX"
};
