/* XPM */
static char *result[] = {
/* columns rows colors chars-per-pixel */
"48 50 49 1 ",
"  c #412B0F",
". c #46320F",
"X c #4A350F",
"o c #4D3B0F",
"O c #503E0F",
"+ c #442E10",
"@ c #463112",
"# c #4B3412",
"$ c #4D3B14",
"% c #513612",
"& c #543B13",
"* c #5A3D13",
"= c #56450F",
"- c #5A4B0E",
"; c #5E510E",
": c #544313",
"> c #5B4313",
", c #574813",
"< c #5A4C12",
"1 c #5E5111",
"2 c #61530F",
"3 c #655B0F",
"4 c #685E0E",
"5 c #634214",
"6 c #684515",
"7 c #614F11",
"8 c #6A4915",
"9 c #625511",
"0 c #665A10",
"q c #6B5C12",
"w c #6C630E",
"e c #6F680D",
"r c #70660E",
"t c #736B0D",
"y c #786F0E",
"u c #7C720E",
"i c #6E6212",
"p c #726412",
"a c #766A10",
"s c #7A6C13",
"d c #7D7111",
"f c #827611",
"g c #857911",
"h c #8A7E12",
"j c #8E8113",
"k c #938414",
"l c #978815",
"z c #988815",
"x c None",
/* pixels */
"xxxxxxxxxxxxxxxxxxxxxxxxxxxxxxxxtexxxxxxxxxxxxxx",
"xxxxxxxxxxxxxxxxxxxxxxxxxxxxxxjhyexxxxxxxxxxxxxx",
"xxxxxxxxxxxxxxxxxxxxxw21x$xxwwujgttdxxxxxxxxxxxx",
"xxxxxxxxxxxxxxxxxxxxju319090wtufuuudyxxxxxxxxxxx",
"xxxxxxxxxxxxxxxxxxfxhutw,qqitttttyywwxxxxxxxxxxx",
"xxxxxxxxxxxxxxxxxyuuuhse9sgueethdyw;<xxxxxxxxxxx",
"xxxxxxxxxxxxxxxswgfdjr999huttuujft3::1xxxxxxxxxx",
"xxxxxxxxxtyfggyatytta<s0isteuhhhp1qi39w0axxxxxxx",
"xxxxxxxyuygufr,9rtstfgkgytettjuyqghft2,:qexxxxxx",
"xxxxxxxdhyjljyiffdhjlljjjdygttteufuue<1wwxxxxxxx",
"xxxxxxeuhhjuyei0pkklkgyttufuttettteetewuyxxxxxxx",
"xxxxxfuthgfuh111gkgjgugettyyteuuugtttgyaitxxxxxx",
"xxxxxyspp030p0eedfuujjjjgttyuegjhkuetyuw$3xxxxxx",
"xxxhge9&:<1idaewqujklkjjutujjtgkkyyugue3$,txxxxx",
"xxf2p<q0dgfyi,11weyhjjjuyujkueuyt=4ujte-12etxxxx",
"x#q>q<<sfgfte0:,2uyyyuueeuyyyttuhsX;t2=qyeetxxxx",
"x-pjd1$djgdaiaq::tuuurw3<aytfhfha1+o;,:iuetexxxx",
"x,qdi:$pss100dp$,2glhqO-9peyhs0<$$#,ea1dteetxxxx",
"x=10<$$iip011if<$<0p0<@:<<1<i1;.@@:wyjhueetwwxxx",
"x@$,:$$1ii:1<19p$:#::@@:994<:&$$:$,11dhteew;0xxx",
"xx +@  @,1$:$$@:$$@$1,111ww1#$:1,:$:<<eee,,3,,xx",
"xxx @@@ @$$<<$+@$1:$::11::1,@$@$@::::,0ee;::$@xx",
"xxxx@@    @:#@@.@,1,@@$$$$$@$1,@:00,@$=3,,@+@@@x",
"xxx      x @@@ <$@1:@++@@@@@@@@@:11<:$@@@@@  +@x",
"xxx   +xxxx+ X=w;=-#+++#@+@@+@@+@<<$o#@ @  @  @x",
"xxxxxxxxxxx+  Xsy;2  ++%#@+@@@.##+#=@@+    @  xx",
"xxxxxxxxxxxxxxx:o.    ++@@@-,<-+   #@.    @ @#.x",
"xxxxxxxxxxx@xxx@x     ++ @+o;X.+    @   @@@.=:#x",
"xxxxxxxxxxx@@xx#xx@  x #++      + +    + + x&@@x",
"xxxxxxxxxxxxxxxxxxx*#++++++ x +#++#  +xxxxxx#+ x",
"xxxxxxxxxxxxxxxxxxxx*%%+#++#5**# #xxxxxxxxxxxxxx",
"xxxxxxxxxxxxxxxxxxxx#%#+%%%5*%%X*xx@xxxxxxxxxxxx",
"xxxxxxxxxxxxxxxxxxxx&&++&%**#xxxxxxxxxxxxxxxxxxx",
"xxxxxxxxxxxxxxxxxxx77*+%5%%##xxxxxxxxxxxxxxxxxxx",
"xxxxxxxxxxxxxxxx5&&%x#+**+##xxxxxxxxxxxxxxxxxxxx",
"xxxxxxxxxxxxxxx#x%+xxx+&%%%+xxxxxxxxxxxxxxxxxxxx",
"xxxxxxxxxxxxxxxx&++xxxx$*#++xxxxxxxxxxxxxxxxxxxx",
"xxxxxxxxxxxxxxx#+xx+xxx&%%++xxxxxxxxxxxxxxxxxxxx",
"xxxxxxxxxxxxxxxxxxxxxx5*6%+%xxxxxxxxxxxxxxxxxxxx",
"xxxxxxxxxxxxxxxxxxxxxx866#+%xxxxxxxxxxxxxxxxxxxx",
"xxxxxxxxxxxxxxxxxxxxx>&>**+%xxxxxxxxxxxxxxxxxxxx",
"xxxxxxxxxxxxxxxxxxxxx*&&O*++xxxxxxxxxxxxxxxxxxxx",
"xxxxxxxxxxxxxxxxxxxx:**&>#++xxxxxxxxxxxxxxxxxxxx",
"xxxxxxxxxxxxxxxxxxx&$>&&*X+%xxxxxxxxxxxxxxxxxxxx",
"xxxxxxxxxxxxxxxxxx##*>O*# ++&xxxxxxxxxxxxxxxxxxx",
"xxxxxxxxxxxxxxxxx#x6&%5%+&++ #xxxxxxxxxxxxxxxxxx",
"xxxxxxxxxxxxxxxxxx5%##5*xx*#xxxxxxxxxxxxxxxxxxxx",
"xxxxxxxxxxxxxxxxxx%+xx#&5x+#xxxxxxxxxxxxxxxxxxxx",
"xxxxxxxxxxxxxxxxxx+xxxxx#xxxxxxxxxxxxxxxxxxxxxxx",
"xxxxxxxxxxxxxxxxxxxxxxxxxxxxxxxxxxxxxxxxxxxxxxxx"
};
